<svg xmlns="http://www.w3.org/2000/svg" width="1400" height="650">
<rect width="100%" height="100%" fill="white"/>
<text x="700.0" y="30" text-anchor="middle" font-size="20" font-family="Arial">UNMAP Time vs Pages (Total vs Average)</text>
<line x1="80" y1="580" x2="1370" y2="580" stroke="#333" stroke-width="1.5"/>
<line x1="80" y1="580" x2="80" y2="60" stroke="#333" stroke-width="1.5"/>
<line x1="80" y1="580.00" x2="1370" y2="580.00" stroke="#ddd" stroke-width="1"/>
<text x="72" y="584.00" text-anchor="end" font-size="11" font-family="Arial">0.0</text>
<line x1="80" y1="493.33" x2="1370" y2="493.33" stroke="#ddd" stroke-width="1"/>
<text x="72" y="497.33" text-anchor="end" font-size="11" font-family="Arial">9.0</text>
<line x1="80" y1="406.67" x2="1370" y2="406.67" stroke="#ddd" stroke-width="1"/>
<text x="72" y="410.67" text-anchor="end" font-size="11" font-family="Arial">18.0</text>
<line x1="80" y1="320.00" x2="1370" y2="320.00" stroke="#ddd" stroke-width="1"/>
<text x="72" y="324.00" text-anchor="end" font-size="11" font-family="Arial">27.0</text>
<line x1="80" y1="233.33" x2="1370" y2="233.33" stroke="#ddd" stroke-width="1"/>
<text x="72" y="237.33" text-anchor="end" font-size="11" font-family="Arial">36.1</text>
<line x1="80" y1="146.67" x2="1370" y2="146.67" stroke="#ddd" stroke-width="1"/>
<text x="72" y="150.67" text-anchor="end" font-size="11" font-family="Arial">45.1</text>
<line x1="80" y1="60.00" x2="1370" y2="60.00" stroke="#ddd" stroke-width="1"/>
<text x="72" y="64.00" text-anchor="end" font-size="11" font-family="Arial">54.1</text>
<rect x="85.38" y="576.97" width="18.81" height="3.03" fill="#2E86AB"/>
<rect x="109.56" y="576.97" width="18.81" height="3.03" fill="#F18F01"/>
<text x="106.88" y="598.00" text-anchor="middle" font-size="10" font-family="Arial">1</text>
<rect x="139.12" y="557.80" width="18.81" height="22.20" fill="#2E86AB"/>
<rect x="163.31" y="568.90" width="18.81" height="11.10" fill="#F18F01"/>
<text x="160.62" y="598.00" text-anchor="middle" font-size="10" font-family="Arial">2</text>
<rect x="192.88" y="537.79" width="18.81" height="42.21" fill="#2E86AB"/>
<rect x="217.06" y="565.93" width="18.81" height="14.07" fill="#F18F01"/>
<text x="214.38" y="598.00" text-anchor="middle" font-size="10" font-family="Arial">3</text>
<rect x="246.62" y="515.09" width="18.81" height="64.91" fill="#2E86AB"/>
<rect x="270.81" y="563.77" width="18.81" height="16.23" fill="#F18F01"/>
<text x="268.12" y="598.00" text-anchor="middle" font-size="10" font-family="Arial">4</text>
<rect x="300.38" y="496.44" width="18.81" height="83.56" fill="#2E86AB"/>
<rect x="324.56" y="563.29" width="18.81" height="16.71" fill="#F18F01"/>
<text x="321.88" y="598.00" text-anchor="middle" font-size="10" font-family="Arial">5</text>
<rect x="354.12" y="476.33" width="18.81" height="103.67" fill="#2E86AB"/>
<rect x="378.31" y="562.72" width="18.81" height="17.28" fill="#F18F01"/>
<text x="375.62" y="598.00" text-anchor="middle" font-size="10" font-family="Arial">6</text>
<rect x="407.88" y="450.08" width="18.81" height="129.92" fill="#2E86AB"/>
<rect x="432.06" y="561.44" width="18.81" height="18.56" fill="#F18F01"/>
<text x="429.38" y="598.00" text-anchor="middle" font-size="10" font-family="Arial">7</text>
<rect x="461.62" y="435.73" width="18.81" height="144.27" fill="#2E86AB"/>
<rect x="485.81" y="561.97" width="18.81" height="18.03" fill="#F18F01"/>
<text x="483.12" y="598.00" text-anchor="middle" font-size="10" font-family="Arial">8</text>
<rect x="515.38" y="415.06" width="18.81" height="164.94" fill="#2E86AB"/>
<rect x="539.56" y="561.67" width="18.81" height="18.33" fill="#F18F01"/>
<text x="536.88" y="598.00" text-anchor="middle" font-size="10" font-family="Arial">9</text>
<rect x="569.12" y="394.13" width="18.81" height="185.87" fill="#2E86AB"/>
<rect x="593.31" y="561.41" width="18.81" height="18.59" fill="#F18F01"/>
<text x="590.62" y="598.00" text-anchor="middle" font-size="10" font-family="Arial">10</text>
<rect x="622.88" y="368.92" width="18.81" height="211.08" fill="#2E86AB"/>
<rect x="647.06" y="560.81" width="18.81" height="19.19" fill="#F18F01"/>
<text x="644.38" y="598.00" text-anchor="middle" font-size="10" font-family="Arial">11</text>
<rect x="676.62" y="354.58" width="18.81" height="225.42" fill="#2E86AB"/>
<rect x="700.81" y="561.21" width="18.81" height="18.79" fill="#F18F01"/>
<text x="698.12" y="598.00" text-anchor="middle" font-size="10" font-family="Arial">12</text>
<rect x="730.38" y="332.10" width="18.81" height="247.90" fill="#2E86AB"/>
<rect x="754.56" y="560.93" width="18.81" height="19.07" fill="#F18F01"/>
<text x="751.88" y="598.00" text-anchor="middle" font-size="10" font-family="Arial">13</text>
<rect x="784.12" y="301.65" width="18.81" height="278.35" fill="#2E86AB"/>
<rect x="808.31" y="560.12" width="18.81" height="19.88" fill="#F18F01"/>
<text x="805.62" y="598.00" text-anchor="middle" font-size="10" font-family="Arial">14</text>
<rect x="837.88" y="292.95" width="18.81" height="287.05" fill="#2E86AB"/>
<rect x="862.06" y="560.86" width="18.81" height="19.14" fill="#F18F01"/>
<text x="859.38" y="598.00" text-anchor="middle" font-size="10" font-family="Arial">15</text>
<rect x="891.62" y="266.50" width="18.81" height="313.50" fill="#2E86AB"/>
<rect x="915.81" y="560.41" width="18.81" height="19.59" fill="#F18F01"/>
<text x="913.12" y="598.00" text-anchor="middle" font-size="10" font-family="Arial">16</text>
<rect x="945.38" y="252.15" width="18.81" height="327.85" fill="#2E86AB"/>
<rect x="969.56" y="560.71" width="18.81" height="19.29" fill="#F18F01"/>
<text x="966.88" y="598.00" text-anchor="middle" font-size="10" font-family="Arial">17</text>
<rect x="999.12" y="224.93" width="18.81" height="355.07" fill="#2E86AB"/>
<rect x="1023.31" y="560.27" width="18.81" height="19.73" fill="#F18F01"/>
<text x="1020.62" y="598.00" text-anchor="middle" font-size="10" font-family="Arial">18</text>
<rect x="1052.88" y="212.29" width="18.81" height="367.71" fill="#2E86AB"/>
<rect x="1077.06" y="560.65" width="18.81" height="19.35" fill="#F18F01"/>
<text x="1074.38" y="598.00" text-anchor="middle" font-size="10" font-family="Arial">19</text>
<rect x="1106.62" y="180.61" width="18.81" height="399.39" fill="#2E86AB"/>
<rect x="1130.81" y="560.03" width="18.81" height="19.97" fill="#F18F01"/>
<text x="1128.12" y="598.00" text-anchor="middle" font-size="10" font-family="Arial">20</text>
<rect x="1160.38" y="174.41" width="18.81" height="405.59" fill="#2E86AB"/>
<rect x="1184.56" y="560.69" width="18.81" height="19.31" fill="#F18F01"/>
<text x="1181.88" y="598.00" text-anchor="middle" font-size="10" font-family="Arial">21</text>
<rect x="1214.12" y="140.55" width="18.81" height="439.45" fill="#2E86AB"/>
<rect x="1238.31" y="560.03" width="18.81" height="19.97" fill="#F18F01"/>
<text x="1235.62" y="598.00" text-anchor="middle" font-size="10" font-family="Arial">22</text>
<rect x="1267.88" y="121.55" width="18.81" height="458.45" fill="#2E86AB"/>
<rect x="1292.06" y="560.07" width="18.81" height="19.93" fill="#F18F01"/>
<text x="1289.38" y="598.00" text-anchor="middle" font-size="10" font-family="Arial">23</text>
<rect x="1321.62" y="107.27" width="18.81" height="472.73" fill="#2E86AB"/>
<rect x="1345.81" y="560.30" width="18.81" height="19.70" fill="#F18F01"/>
<text x="1343.12" y="598.00" text-anchor="middle" font-size="10" font-family="Arial">24</text>
<text x="725.00" y="630" text-anchor="middle" font-size="13" font-family="Arial">Pages Unmapped per Call</text>
<text x="20" y="320.00" transform="rotate(-90 20,320.00)" text-anchor="middle" font-size="13" font-family="Arial">Time (ms)</text>
<rect x="1080" y="50" width="14" height="14" fill="#2E86AB"/>
<text x="1102" y="62" font-size="12" font-family="Arial">Total Time per Call (ms)</text>
<rect x="1080" y="72" width="14" height="14" fill="#F18F01"/>
<text x="1102" y="84" font-size="12" font-family="Arial">Average Time per Page (ms)</text>
</svg>